<?xml version="1.0" encoding="utf-8"?>
<!-- Generator: Adobe Illustrator 15.0.0, SVG Export Plug-In . SVG Version: 6.00 Build 0)  -->
<!DOCTYPE svg PUBLIC "-//W3C//DTD SVG 1.1//EN" "http://www.w3.org/Graphics/SVG/1.1/DTD/svg11.dtd">
<svg version="1.1" id="Layer_1" xmlns="http://www.w3.org/2000/svg" xmlns:xlink="http://www.w3.org/1999/xlink" x="0px" y="0px"
	 width="33px" height="27px" viewBox="0 0 33 27" enable-background="new 0 0 33 27" xml:space="preserve">
<path fill="none" d="M0.629,18.046c0,5.692,3.42,8.829,7.312,8.829c3.538,0,6.25-2.789,6.25-6.156c0-3.485-2.358-5.926-5.661-5.926
	c-0.589,0-1.415,0.116-1.533,0.116c0.354-3.716,3.773-8.364,7.547-10.802l-4.364-3.485C4.757,4.455,0.629,10.959,0.629,18.046z
	 M19.498,18.046c0,5.692,3.42,8.829,7.312,8.829c3.538,0,6.368-2.789,6.368-6.156c0-3.485-2.477-5.926-5.778-5.926
	c-0.59,0-1.415,0.116-1.533,0.116c0.472-3.716,3.773-8.364,7.547-10.802L29.05,0.622C23.625,4.455,19.498,10.959,19.498,18.046z"/>
<path fill="none" d="M0.629,18.046c0,5.692,3.42,8.829,7.312,8.829c3.538,0,6.25-2.789,6.25-6.156c0-3.485-2.358-5.926-5.661-5.926
	c-0.589,0-1.415,0.116-1.533,0.116c0.354-3.716,3.773-8.364,7.547-10.802l-4.364-3.485C4.757,4.455,0.629,10.959,0.629,18.046z
	 M19.498,18.046c0,5.692,3.42,8.829,7.312,8.829c3.538,0,6.368-2.789,6.368-6.156c0-3.485-2.477-5.926-5.778-5.926
	c-0.59,0-1.415,0.116-1.533,0.116c0.472-3.716,3.773-8.364,7.547-10.802L29.05,0.622C23.625,4.455,19.498,10.959,19.498,18.046z"/>
<path fill="none" d="M0.629,18.046c0,5.692,3.42,8.829,7.312,8.829c3.538,0,6.25-2.789,6.25-6.156c0-3.485-2.358-5.926-5.661-5.926
	c-0.589,0-1.415,0.116-1.533,0.116c0.354-3.716,3.773-8.364,7.547-10.802l-4.364-3.485C4.757,4.455,0.629,10.959,0.629,18.046z
	 M19.498,18.046c0,5.692,3.42,8.829,7.312,8.829c3.538,0,6.368-2.789,6.368-6.156c0-3.485-2.477-5.926-5.778-5.926
	c-0.59,0-1.415,0.116-1.533,0.116c0.472-3.716,3.773-8.364,7.547-10.802L29.05,0.622C23.625,4.455,19.498,10.959,19.498,18.046z"/>
<path fill="none" d="M0.629,18.046c0,5.692,3.42,8.829,7.312,8.829c3.538,0,6.25-2.789,6.25-6.156c0-3.485-2.358-5.926-5.661-5.926
	c-0.589,0-1.415,0.116-1.533,0.116c0.354-3.716,3.773-8.364,7.547-10.802l-4.364-3.485C4.757,4.455,0.629,10.959,0.629,18.046z
	 M19.498,18.046c0,5.692,3.42,8.829,7.312,8.829c3.538,0,6.368-2.789,6.368-6.156c0-3.485-2.477-5.926-5.778-5.926
	c-0.59,0-1.415,0.116-1.533,0.116c0.472-3.716,3.773-8.364,7.547-10.802L29.05,0.622C23.625,4.455,19.498,10.959,19.498,18.046z"/>
<path fill="none" d="M0.629,18.046c0,5.692,3.42,8.829,7.312,8.829c3.538,0,6.25-2.789,6.25-6.156c0-3.485-2.358-5.926-5.661-5.926
	c-0.589,0-1.415,0.116-1.533,0.116c0.354-3.716,3.773-8.364,7.547-10.802l-4.364-3.485C4.757,4.455,0.629,10.959,0.629,18.046z
	 M19.498,18.046c0,5.692,3.42,8.829,7.312,8.829c3.538,0,6.368-2.789,6.368-6.156c0-3.485-2.477-5.926-5.778-5.926
	c-0.59,0-1.415,0.116-1.533,0.116c0.472-3.716,3.773-8.364,7.547-10.802L29.05,0.622C23.625,4.455,19.498,10.959,19.498,18.046z"/>
<path fill="none" d="M0.629,18.046c0,5.692,3.42,8.829,7.312,8.829c3.538,0,6.25-2.789,6.25-6.156c0-3.485-2.358-5.926-5.661-5.926
	c-0.589,0-1.415,0.116-1.533,0.116c0.354-3.716,3.773-8.364,7.547-10.802l-4.364-3.485C4.757,4.455,0.629,10.959,0.629,18.046z
	 M19.498,18.046c0,5.692,3.42,8.829,7.312,8.829c3.538,0,6.368-2.789,6.368-6.156c0-3.485-2.477-5.926-5.778-5.926
	c-0.59,0-1.415,0.116-1.533,0.116c0.472-3.716,3.773-8.364,7.547-10.802L29.05,0.622C23.625,4.455,19.498,10.959,19.498,18.046z"/>
<path fill="none" d="M0.223,17.871c0,5.692,3.42,8.829,7.312,8.829c3.538,0,6.25-2.789,6.25-6.156c0-3.485-2.358-5.926-5.661-5.926
	c-0.589,0-1.415,0.116-1.533,0.116c0.354-3.716,3.773-8.364,7.547-10.802L9.775,0.447C4.351,4.28,0.223,10.784,0.223,17.871z
	 M19.092,17.871c0,5.692,3.42,8.829,7.312,8.829c3.538,0,6.368-2.789,6.368-6.156c0-3.485-2.477-5.926-5.778-5.926
	c-0.59,0-1.415,0.116-1.533,0.116c0.472-3.716,3.773-8.364,7.547-10.802l-4.363-3.485C23.219,4.28,19.092,10.784,19.092,17.871z"/>
<path fill="#53C8EA" d="M-0.015,18.075c0,5.692,3.42,8.829,7.312,8.829c3.538,0,6.25-2.789,6.25-6.156
	c0-3.485-2.358-5.926-5.661-5.926c-0.589,0-1.415,0.116-1.533,0.116c0.354-3.716,3.773-8.364,7.547-10.802L9.537,0.651
	C4.112,4.484-0.015,10.988-0.015,18.075z M18.854,18.075c0,5.692,3.42,8.829,7.312,8.829c3.538,0,6.368-2.789,6.368-6.156
	c0-3.485-2.477-5.926-5.778-5.926c-0.59,0-1.415,0.116-1.533,0.116c0.472-3.716,3.773-8.364,7.547-10.802l-4.363-3.485
	C22.98,4.484,18.854,10.988,18.854,18.075z"/>
</svg>
